<?xml version="1.0" encoding="utf-8"?>
<!-- Generator: Adobe Illustrator 22.0.1, SVG Export Plug-In . SVG Version: 6.00 Build 0)  -->
<svg version="1.1" id="Layer_1" xmlns="http://www.w3.org/2000/svg" xmlns:xlink="http://www.w3.org/1999/xlink" x="0px" y="0px"
	 viewBox="0 0 1223 235" style="enable-background:new 0 0 1223 235;" xml:space="preserve">
<style type="text/css">
	.st0{fill:#FFFFFF;}
	.st1{font-family:'Quasimoda-Regular';}
	.st2{font-size:166.9838px;}
</style>
<title>docusaurus</title>
<desc>Created with Sketch.</desc>
<g id="logo_3_">
	<g>
		<path id="icon_7_" class="st0" d="M76.1,74.3l14.2-22.1c5.7,1.2,11.7-1.1,15-6.3c4.3-6.6,2.3-15.5-4.3-19.8
			c-6.6-4.3-15.5-2.3-19.8,4.3c-3.3,5.2-2.9,11.6,0.6,16.3L64.2,74.2C35.8,77,13.6,100.9,13.6,130c0,31,25.1,56.1,56.1,56.1
			s56.1-25.1,56.1-56.1C125.8,101.2,104.1,77.5,76.1,74.3z M69.6,159.8c-16.4,0-29.8-13.3-29.8-29.8c0-16.4,13.3-29.8,29.8-29.8
			c12.7,0,23.6,8,27.8,19.2c-3.1-4-8-6.7-13.6-6.7c-9.5,0-17.2,7.7-17.2,17.2s7.7,17.2,17.2,17.2c5.5,0,10.4-2.6,13.5-6.6
			C93.2,151.8,82.4,159.8,69.6,159.8z"/>
		<path id="s_8_" class="st0" d="M139.4,161.8l17.9-12l1.6,0.2c5.5,9,13.6,14.3,23,14.3c9.2,0,14.9-4.1,14.9-10.3
			c0-5.1-3.7-9.4-20.7-15.4c-25.1-9.2-32.4-19.1-32.4-33.8c0-17.7,15.4-31,40.2-31c19.3,0,34.7,9,40.9,22.8l-17,11l-2.1-0.2
			c-3.7-7.6-10.8-12.2-19.8-12.2c-8.3,0-12.9,4.1-12.9,9.2c0,5.1,2.3,8.3,20.9,15.4c23.9,9.4,32,18.6,32,34.3
			c0,18.4-16.6,31.7-42.5,31.7C163.4,185.7,148,177.5,139.4,161.8z"/>
		<path id="t_8_" class="st0" d="M315.1,181.8c-5.7,2.3-14.3,3.9-22.5,3.9c-23.7,0-36.6-12-36.6-34.9v-49h-18.6V78.2h18.8V50.8
			l23.9-14h6.4v41.4h28.3v23.7h-28.3V143c0,12.6,3.9,16.6,14.5,16.6c3.7,0,7.1-0.9,11.3-2.8l2.1,1.1L315.1,181.8z"/>
	</g>
	<g>
		<path id="icon_6_" class="st0" d="M76.1,74.3l14.2-22.1c5.7,1.2,11.7-1.1,15-6.3c4.3-6.6,2.3-15.5-4.3-19.8
			c-6.6-4.3-15.5-2.3-19.8,4.3c-3.3,5.2-2.9,11.6,0.6,16.3L64.2,74.2C35.8,77,13.6,100.9,13.6,130c0,31,25.1,56.1,56.1,56.1
			s56.1-25.1,56.1-56.1C125.8,101.2,104.1,77.5,76.1,74.3z M69.6,159.8c-16.4,0-29.8-13.3-29.8-29.8c0-16.4,13.3-29.8,29.8-29.8
			c12.7,0,23.6,8,27.8,19.2c-3.1-4-8-6.7-13.6-6.7c-9.5,0-17.2,7.7-17.2,17.2s7.7,17.2,17.2,17.2c5.5,0,10.4-2.6,13.5-6.6
			C93.2,151.8,82.4,159.8,69.6,159.8z"/>
		<path id="s_7_" class="st0" d="M139.4,161.8l17.9-12l1.6,0.2c5.5,9,13.6,14.3,23,14.3c9.2,0,14.9-4.1,14.9-10.3
			c0-5.1-3.7-9.4-20.7-15.4c-25.1-9.2-32.4-19.1-32.4-33.8c0-17.7,15.4-31,40.2-31c19.3,0,34.7,9,40.9,22.8l-17,11l-2.1-0.2
			c-3.7-7.6-10.8-12.2-19.8-12.2c-8.3,0-12.9,4.1-12.9,9.2c0,5.1,2.3,8.3,20.9,15.4c23.9,9.4,32,18.6,32,34.3
			c0,18.4-16.6,31.7-42.5,31.7C163.4,185.7,148,177.5,139.4,161.8z"/>
		<path id="t_7_" class="st0" d="M315.1,181.8c-5.7,2.3-14.3,3.9-22.5,3.9c-23.7,0-36.6-12-36.6-34.9v-49h-18.6V78.2h18.8V50.8
			l23.9-14h6.4v41.4h28.3v23.7h-28.3V143c0,12.6,3.9,16.6,14.5,16.6c3.7,0,7.1-0.9,11.3-2.8l2.1,1.1L315.1,181.8z"/>
	</g>
</g>
<text transform="matrix(1 0 0 1 356 173.7335)" class="st0 st1 st2">Developers</text>
</svg>
