<?xml version="1.0" encoding="UTF-8"?>
<svg width="408px" height="35px" viewBox="0 0 408 35" version="1.1" xmlns="http://www.w3.org/2000/svg" xmlns:xlink="http://www.w3.org/1999/xlink">
    <!-- Generator: Sketch 53.2 (72643) - https://sketchapp.com -->
    <title>Group 2 Copy</title>
    <desc>Created with Sketch.</desc>
    <defs>
        <polygon id="path-1" points="0 0.1384 23.9095537 0.1384 23.9095537 34.988 0 34.988"></polygon>
        <polygon id="path-3" points="0 0.137718642 64.1476718 0.137718642 64.1476718 34.8157504 0 34.8157504"></polygon>
    </defs>
    <g id="Page-1" stroke="none" stroke-width="1" fill="none" fill-rule="evenodd">
        <g id="Group-2-Copy" transform="translate(0.000000, -1.000000)">
            <g id="Group">
                <g id="ost-logo-blue">
                    <g id="Group-3" transform="translate(0.000000, 0.833333)">
                        <mask id="mask-2" fill="white">
                            <use xlink:href="#path-1"></use>
                        </mask>
                        <g id="Clip-2"></g>
                        <path d="M11.9395041,29.3384 C8.43609917,29.3384 5.5957686,26.4744 5.5957686,22.9418 C5.5957686,19.409 8.43609917,16.5452 11.9395041,16.5452 C14.653686,16.5452 16.9687934,18.2646 17.8746446,20.6818 C17.2042314,19.8128 16.1603306,19.2516 14.9839339,19.2516 C12.9607934,19.2516 11.3204628,20.9054 11.3204628,22.9456 C11.3204628,24.9858 12.9607934,26.6396 14.9839339,26.6396 C16.156562,26.6396 17.197686,26.0822 17.8682975,25.218 C16.958281,27.6266 14.6477355,29.3384 11.9395041,29.3384 Z M13.3136529,10.9708 L16.3366612,6.2178 C17.5414215,6.4754 18.8316694,5.98 19.536,4.8728 C20.4450248,3.4436 20.0328595,1.5418 18.6152727,0.6252 C17.1978843,-0.2914 15.3118017,0.1242 14.4027769,1.5536 C13.6986446,2.6608 13.790281,4.0498 14.525157,5.0464 L10.7700496,10.9504 C4.72383471,11.5504 0,16.6912 0,22.9456 C0,29.6032 5.35239669,35 11.9547769,35 C18.5573554,35 23.9095537,29.6032 23.9095537,22.9456 C23.9095537,16.7518 19.2759669,11.6516 13.3136529,10.9708 L13.3136529,10.9708 Z" id="Fill-1" fill="#213B4B" mask="url(#mask-2)"></path>
                    </g>
                    <path d="M27,30.70803 L30.7242246,28.1453783 L31.0583631,28.1946485 C32.2043676,30.1167869 33.8754469,31.2502022 35.8329307,31.2502022 C37.7426805,31.2502022 38.9362257,30.3629387 38.9362257,29.0324423 C38.9362257,27.9482973 38.1722872,27.0119629 34.6391922,25.7307368 C29.4352111,23.7595277 27.907334,21.6403083 27.907334,18.4862141 C27.907334,14.6916065 31.1060972,11.8333333 36.2625374,11.8333333 C40.2731665,11.8333333 43.4721229,13.7552722 44.7611363,16.7122854 L41.2280414,19.0776566 L40.7982414,19.0283864 C40.0344961,17.4022685 38.5543531,16.4164644 36.6923374,16.4164644 C34.973524,16.4164644 34.0186491,17.303728 34.0186491,18.3876736 C34.0186491,19.4720181 34.49599,20.1620012 38.3634168,21.6895786 C43.3289207,23.7102574 45,25.6814666 45,29.0324423 C45,32.9750601 41.5621799,35.8333333 36.1670693,35.8333333 C31.9655039,35.8333333 28.7667407,34.0592052 27,30.70803" id="Fill-4" fill="#213B4B"></path>
                    <g id="Group-8" transform="translate(0.000000, 0.833333)">
                        <mask id="mask-4" fill="white">
                            <use xlink:href="#path-3"></use>
                        </mask>
                        <g id="Clip-6"></g>
                        <path d="M64.1476718,33.9148078 C62.9247667,34.4065748 61.1147641,34.7506724 59.3536698,34.7506724 C54.3149283,34.7506724 51.5754703,32.1941208 51.5754703,27.2770478 L51.5754703,16.8042615 L47.6131071,16.8042615 L47.6131071,11.7401162 L51.6243786,11.7401162 L51.6243786,5.88926309 L56.7120283,2.88990232 L58.0818563,2.88990232 L58.0818563,11.7401162 L64.0987635,11.7401162 L64.0987635,16.8042615 L58.0818563,16.8042615 L58.0818563,25.6055177 C58.0818563,28.3097386 58.9132972,29.1454042 61.1636724,29.1454042 C61.9464029,29.1454042 62.6802252,28.948976 63.5607724,28.5555226 L64.000947,28.8015056 L64.1476718,33.9148078" id="Fill-5" fill="#213B4B" mask="url(#mask-4)"></path>
                        <path d="M11.919167,29.193964 C8.42172957,29.193964 5.58623706,26.3440637 5.58623706,22.8288551 C5.58623706,19.3134474 8.42172957,16.4637462 11.919167,16.4637462 C14.6287256,16.4637462 16.9398897,18.1746814 17.8441979,20.5799813 C17.1749266,19.7152595 16.1328039,19.1568223 14.9584111,19.1568223 C12.9387167,19.1568223 11.3011801,20.8024805 11.3011801,22.8326364 C11.3011801,24.8627923 12.9387167,26.5084504 14.9584111,26.5084504 C16.1290418,26.5084504 17.1683923,25.9537946 17.8378616,25.0938491 C16.9293952,27.4905913 14.6227854,29.193964 11.919167,29.193964 Z M13.2909751,10.9167896 L16.3088342,6.18718912 C17.5115424,6.44352092 18.7995926,5.95055983 19.5027234,4.84881069 C20.4101998,3.42664679 19.9987366,1.53420956 18.5835645,0.622122075 C17.1685903,-0.289965407 15.2857203,0.12358855 14.3782439,1.54595146 C13.6753111,2.6477006 13.7667914,4.02986241 14.5004156,5.02155604 L10.7517045,10.89649 C4.71578838,11.4935362 0,16.6090275 0,22.8326364 C0,29.4574603 5.34327971,34.8276913 11.9344137,34.8276913 C18.5257458,34.8276913 23.8688275,29.4574603 23.8688275,22.8326364 C23.8688275,16.6693291 19.2431333,11.5942379 13.2909751,10.9167896 L13.2909751,10.9167896 Z" id="Fill-7" fill="#35445B" mask="url(#mask-4)"></path>
                    </g>
                    <path d="M27,30.70803 L30.7242246,28.1453783 L31.0583631,28.1946485 C32.2043676,30.1167869 33.8754469,31.2502022 35.8329307,31.2502022 C37.7426805,31.2502022 38.9362257,30.3629387 38.9362257,29.0324423 C38.9362257,27.9482973 38.1722872,27.0119629 34.6391922,25.7307368 C29.4352111,23.7595277 27.907334,21.6403083 27.907334,18.4862141 C27.907334,14.6916065 31.1060972,11.8333333 36.2625374,11.8333333 C40.2731665,11.8333333 43.4721229,13.7552722 44.7611363,16.7122854 L41.2280414,19.0776566 L40.7982414,19.0283864 C40.0344961,17.4022685 38.5543531,16.4164644 36.6923374,16.4164644 C34.973524,16.4164644 34.0186491,17.303728 34.0186491,18.3876736 C34.0186491,19.4720181 34.49599,20.1620012 38.3634168,21.6895786 C43.3289207,23.7102574 45,25.6814666 45,29.0324423 C45,32.9750601 41.5621799,35.8333333 36.1670693,35.8333333 C31.9655039,35.8333333 28.7667407,34.0592052 27,30.70803" id="Fill-9" fill="#35445B"></path>
                    <path d="M64,34.9938161 C62.742671,35.4877321 60.8817182,35.8333333 59.0710505,35.8333333 C53.8904723,35.8333333 51.0739007,33.2656098 51.0739007,28.3270494 L51.0739007,17.8084976 L47,17.8084976 L47,12.7222222 L51.1241857,12.7222222 L51.1241857,6.84580116 L56.3550489,3.83333333 L57.7634365,3.83333333 L57.7634365,12.7222222 L63.949715,12.7222222 L63.949715,17.8084976 L57.7634365,17.8084976 L57.7634365,26.6482148 C57.7634365,29.3642531 58.6182818,30.2035704 60.9320033,30.2035704 C61.7367671,30.2035704 62.4912459,30.0062839 63.3965798,29.6111111 L63.849145,29.8581691 L64,34.9938161" id="Fill-10" fill="#35445B"></path>
                </g>
                <path d="M76,35 L76,12 L82.9983949,12 C91.3772071,12 96,16.190678 96,23.4025424 C96,30.6793785 91.1203852,35 82.9662921,35 L76,35 Z M81,31 L83.1804734,31 C89.1360947,31 92,28.6315789 92,23.3684211 C92,18.3026316 89.2011834,16 83.2455621,16 L81,16 L81,31 Z M101,12 L114.557562,12 L115,15.930791 L105.424379,15.930791 L105.424379,21.3884181 L114.115124,21.3884181 L114.115124,25.1892655 L105.424379,25.1892655 L105.424379,31.069209 L115,31.069209 L114.557562,35 L101,35 L101,12 Z M127.511527,35 L118,12 L123.335735,12 L128.074928,24.6066946 C128.505764,25.8256625 129.036023,27.2691771 129.433718,28.9051604 L129.599424,28.9051604 C129.997118,27.2691771 130.494236,25.8898187 130.958213,24.6708508 L135.631124,12 L141,12 L131.488473,35 L127.511527,35 Z M144,12 L157.557562,12 L158,15.930791 L148.424379,15.930791 L148.424379,21.3884181 L157.115124,21.3884181 L157.115124,25.1892655 L148.424379,25.1892655 L148.424379,31.069209 L158,31.069209 L157.557562,35 L144,35 L144,12 Z M163,12 L167.605263,12 L167.605263,30.8742938 L178,30.8742938 L177.473684,35 L163,35 L163,12 Z M192.5,36 C185.287206,36 180,30.8203753 180,24 C180,17.1152815 185.221932,12 192.5,12 C199.778068,12 205,17.1152815 205,24 C205,30.8203753 199.712794,36 192.5,36 Z M192.5,32 C196.840426,32 200,28.5360825 200,24.0164948 C200,19.3979381 196.87234,16 192.5,16 C188.159574,16 185,19.3979381 185,24.0164948 C185,28.5360825 188.159574,32 192.5,32 Z M209,35 L209,12 L216.508197,12 C222.147541,12 225,14.5014124 225,19.2118644 C225,23.6624294 222.081967,26.2937853 216.934426,26.2937853 L213.655738,26.2937853 L213.655738,35 L209,35 Z M214,23 L216.490385,23 C219.586538,23 221,21.9 221,19.5333333 C221,17.0333333 219.552885,16 216.490385,16 L214,16 L214,23 Z M230,12 L243.557562,12 L244,15.930791 L234.424379,15.930791 L234.424379,21.3884181 L243.115124,21.3884181 L243.115124,25.1892655 L234.424379,25.1892655 L234.424379,31.069209 L244,31.069209 L243.557562,35 L230,35 L230,12 Z M260.500885,25.175389 L267,34.446959 L266.776991,35 L262.125664,35 L256.040708,25.8585573 L253.523894,25.8585573 L253.523894,35 L249,35 L249,12 L256.550442,12 C261.870796,12 264.706195,14.3097595 264.706195,19.0594059 C264.706195,22.0523338 263.20885,24.1994342 260.500885,25.175389 Z M253,16 L253,22 L255.629108,22 C258.619718,22 260,21.1343284 260,19.0447761 C260,16.8656716 258.586854,16 255.629108,16 L253,16 Z M276.682975,36 C272.890411,36 269.996086,34.5201072 268,31.2707775 L271.227006,29.0831099 L271.825832,29.2439678 C273.09002,31.2707775 274.587084,32.1394102 276.649706,32.1394102 C278.745597,32.1394102 280.176125,30.9168901 280.176125,29.3726542 C280.176125,27.8284182 279.277886,26.8632708 275.18591,25.1903485 C270.561644,23.3243968 268.898239,21.3297587 268.898239,18.1769437 C268.898239,14.7024129 272.02544,12 276.749511,12 C280.242661,12 282.870841,13.4155496 284.500978,15.8605898 L281.307241,18.1126005 L280.708415,17.9839142 C279.776908,16.6327078 278.545988,15.8284182 276.749511,15.8284182 C274.819961,15.8284182 273.722114,16.7935657 273.722114,18.1447721 C273.722114,19.3994638 274.387476,20.1072386 278.579256,21.8766756 C283.502935,24 285,25.9946381 285,29.0509383 C285,32.9436997 281.540117,36 276.682975,36 Z" id="DEVELOPERS" fill="#35445B" fill-rule="nonzero"></path>
            </g>
            <path d="M301.767556,34.5555556 L301.767556,13.6302222 L307.59,13.6302222 C312.141556,13.6302222 314.535556,15.7286667 314.535556,19.6595556 C314.535556,23.4426667 311.993778,25.6297778 307.560444,25.6297778 L304.220667,25.6297778 L304.220667,34.5555556 L301.767556,34.5555556 Z M304.220667,23.4426667 L306.998889,23.4426667 C310.516,23.4426667 312.052889,22.29 312.052889,19.6595556 C312.052889,16.9404444 310.486444,15.8173333 306.998889,15.8173333 L304.220667,15.8173333 L304.220667,23.4426667 Z M317.964,34.5555556 L317.964,12.8913333 L320.210222,12.8913333 L320.210222,34.5555556 L317.964,34.5555556 Z M335.845111,32.8708889 L336.081556,32.9891111 L336.081556,34.7328889 C335.372222,34.9397778 334.988,35.0284444 334.219556,35.0284444 C333.007778,35.0284444 332.239333,34.3486667 332.150667,33.1073333 C330.732,34.526 329.461111,35.1171111 327.835556,35.1171111 C325.500667,35.1171111 323.993333,33.6688889 323.993333,31.5113333 C323.993333,29.0877778 326.298667,27.3735556 332.062,26.6051111 L332.062,25.7775556 C332.062,23.7973333 331.234444,22.9106667 329.697556,22.9106667 C328.160667,22.9106667 326.860222,23.7677778 325.884889,25.216 L325.648444,25.2455556 L324.082,24.2111111 C325.293778,22.1717778 327.480889,20.8713333 329.845333,20.8713333 C332.623556,20.8713333 334.308222,22.4377778 334.308222,25.2751111 L334.308222,32.3093333 C334.308222,32.9004444 334.485556,33.0777778 334.988,33.0777778 C335.254,33.0777778 335.460889,33.0186667 335.845111,32.8708889 Z M328.367556,33.196 C329.815778,33.196 331.086667,32.5753333 332.062,31.5704444 L332.062,28.3193333 C327.894667,28.9991111 326.357778,29.9153333 326.357778,31.4522222 C326.357778,32.5457778 327.037556,33.196 328.367556,33.196 Z M345.923556,32.7231111 L346.012222,34.7033333 C345.273333,34.9693333 344.475333,35.1171111 343.588667,35.1171111 C341.224222,35.1171111 339.805556,33.728 339.805556,31.2157778 L339.805556,23.354 L337.293333,23.354 L337.293333,21.4328889 L339.805556,21.4328889 L339.805556,17.2951111 L341.756222,16.1128889 L342.051778,16.1128889 L342.051778,21.4328889 L345.982667,21.4328889 L345.982667,23.354 L342.051778,23.354 L342.051778,30.536 C342.051778,32.398 342.554222,33.0186667 344.032,33.0186667 C344.564,33.0186667 345.096,32.8708889 345.687111,32.6048889 L345.923556,32.7231111 Z M355.588222,14.9897778 C355.056222,14.7533333 354.553778,14.6646667 354.169556,14.6646667 C352.869111,14.6646667 352.337111,15.374 352.337111,17.9157778 L352.337111,21.4328889 L355.617778,21.4328889 L355.617778,23.354 L352.337111,23.354 L352.337111,34.5555556 L350.090889,34.5555556 L350.090889,23.354 L347.578667,23.354 L347.578667,21.4328889 L350.090889,21.4328889 L350.090889,18.0931111 C350.090889,13.9257778 351.273111,12.5366667 354.051333,12.5366667 C354.583333,12.5366667 355.351778,12.6548889 356.002,12.8617778 L355.854222,14.8715556 L355.588222,14.9897778 Z M364.041111,35.1171111 C359.962444,35.1171111 356.859111,31.9842222 356.859111,27.9942222 C356.859111,23.9746667 359.932889,20.8713333 364.041111,20.8713333 C368.149333,20.8713333 371.223111,23.9746667 371.223111,27.9942222 C371.223111,31.9842222 368.119778,35.1171111 364.041111,35.1171111 Z M364.041111,33.0186667 C366.760222,33.0186667 368.858667,30.802 368.858667,27.9942222 C368.858667,25.1864444 366.789778,22.9697778 364.041111,22.9697778 C361.292444,22.9697778 359.223556,25.1864444 359.223556,27.9942222 C359.223556,30.802 361.322,33.0186667 364.041111,33.0186667 Z M374.917556,34.5555556 L374.917556,21.4328889 L376.927333,21.4328889 L376.927333,24.0928889 C378.050444,21.8171111 379.41,20.8713333 381.212889,20.8713333 C382.424667,20.8713333 383.429556,21.5806667 383.932,22.9697778 L382.010889,24.0928889 L381.774444,24.0337778 C381.419778,23.2357778 380.976444,22.9697778 380.267111,22.9697778 C378.730222,22.9697778 377.163778,24.9795556 377.163778,28.408 L377.163778,34.5555556 L374.917556,34.5555556 Z M402.463333,20.8713333 C405.330222,20.8713333 407.133111,22.7333333 407.133111,26.0731111 L407.133111,34.5555556 L404.886889,34.5555556 L404.886889,27.078 C404.886889,24.2406667 403.822889,22.9697778 401.783556,22.9697778 C399.566889,22.9697778 397.970889,25.1864444 397.970889,28.2011111 L397.970889,34.5555556 L395.724667,34.5555556 L395.724667,27.078 C395.724667,24.2406667 394.660667,22.9697778 392.621333,22.9697778 C390.404667,22.9697778 388.808667,25.1864444 388.808667,28.2011111 L388.808667,34.5555556 L386.562444,34.5555556 L386.562444,21.4328889 L388.808667,21.4328889 L388.808667,23.7677778 C389.872667,21.9057778 391.38,20.8713333 393.301111,20.8713333 C395.576889,20.8713333 397.025111,22.0535556 397.586667,24.2111111 C398.680222,21.9353333 400.571778,20.8713333 402.463333,20.8713333 Z" id="Platform" fill="#597A84" fill-rule="nonzero"></path>
        </g>
    </g>
</svg>