<svg version="1.1" id="Layer_1" xmlns="http://www.w3.org/2000/svg" x="0" y="0" viewBox="0 0 1223 235" xml:space="preserve"><style>.st0{fill:#fff}</style><g id="logo_3_"><path id="icon_7_" class="st0" d="M76.1 74.3l14.2-22.1c5.7 1.2 11.7-1.1 15-6.3 4.3-6.6 2.3-15.5-4.3-19.8-6.6-4.3-15.5-2.3-19.8 4.3-3.3 5.2-2.9 11.6.6 16.3L64.2 74.2C35.8 77 13.6 100.9 13.6 130c0 31 25.1 56.1 56.1 56.1s56.1-25.1 56.1-56.1c0-28.8-21.7-52.5-49.7-55.7zm-6.5 85.5c-16.4 0-29.8-13.3-29.8-29.8 0-16.4 13.3-29.8 29.8-29.8 12.7 0 23.6 8 27.8 19.2-3.1-4-8-6.7-13.6-6.7-9.5 0-17.2 7.7-17.2 17.2s7.7 17.2 17.2 17.2c5.5 0 10.4-2.6 13.5-6.6-4.1 11.3-14.9 19.3-27.7 19.3z"/><path id="s_8_" class="st0" d="M139.4 161.8l17.9-12 1.6.2c5.5 9 13.6 14.3 23 14.3 9.2 0 14.9-4.1 14.9-10.3 0-5.1-3.7-9.4-20.7-15.4-25.1-9.2-32.4-19.1-32.4-33.8 0-17.7 15.4-31 40.2-31 19.3 0 34.7 9 40.9 22.8l-17 11-2.1-.2c-3.7-7.6-10.8-12.2-19.8-12.2-8.3 0-12.9 4.1-12.9 9.2s2.3 8.3 20.9 15.4c23.9 9.4 32 18.6 32 34.3 0 18.4-16.6 31.7-42.5 31.7-20-.1-35.4-8.3-44-24z"/><path id="t_8_" class="st0" d="M315.1 181.8c-5.7 2.3-14.3 3.9-22.5 3.9-23.7 0-36.6-12-36.6-34.9v-49h-18.6V78.2h18.8V50.8l23.9-14h6.4v41.4h28.3v23.7h-28.3V143c0 12.6 3.9 16.6 14.5 16.6 3.7 0 7.1-.9 11.3-2.8l2.1 1.1.7 23.9z"/><path id="icon_6_" class="st0" d="M76.1 74.3l14.2-22.1c5.7 1.2 11.7-1.1 15-6.3 4.3-6.6 2.3-15.5-4.3-19.8-6.6-4.3-15.5-2.3-19.8 4.3-3.3 5.2-2.9 11.6.6 16.3L64.2 74.2C35.8 77 13.6 100.9 13.6 130c0 31 25.1 56.1 56.1 56.1s56.1-25.1 56.1-56.1c0-28.8-21.7-52.5-49.7-55.7zm-6.5 85.5c-16.4 0-29.8-13.3-29.8-29.8 0-16.4 13.3-29.8 29.8-29.8 12.7 0 23.6 8 27.8 19.2-3.1-4-8-6.7-13.6-6.7-9.5 0-17.2 7.7-17.2 17.2s7.7 17.2 17.2 17.2c5.5 0 10.4-2.6 13.5-6.6-4.1 11.3-14.9 19.3-27.7 19.3z"/><path id="s_7_" class="st0" d="M139.4 161.8l17.9-12 1.6.2c5.5 9 13.6 14.3 23 14.3 9.2 0 14.9-4.1 14.9-10.3 0-5.1-3.7-9.4-20.7-15.4-25.1-9.2-32.4-19.1-32.4-33.8 0-17.7 15.4-31 40.2-31 19.3 0 34.7 9 40.9 22.8l-17 11-2.1-.2c-3.7-7.6-10.8-12.2-19.8-12.2-8.3 0-12.9 4.1-12.9 9.2s2.3 8.3 20.9 15.4c23.9 9.4 32 18.6 32 34.3 0 18.4-16.6 31.7-42.5 31.7-20-.1-35.4-8.3-44-24z"/><path id="t_7_" class="st0" d="M315.1 181.8c-5.7 2.3-14.3 3.9-22.5 3.9-23.7 0-36.6-12-36.6-34.9v-49h-18.6V78.2h18.8V50.8l23.9-14h6.4v41.4h28.3v23.7h-28.3V143c0 12.6 3.9 16.6 14.5 16.6 3.7 0 7.1-.9 11.3-2.8l2.1 1.1.7 23.9z"/></g><path class="st0" d="M370.7 55.5h31.9c44.6 0 67.8 20.5 67.8 58.4 0 38.1-24.9 59.8-67.8 59.8h-31.9V55.5zm29.7 105.4c37.6 0 55.4-14.9 55.4-47.3 0-31.1-17-45.3-55.4-45.3h-15.9v92.5h15.9zm100-21.9v.7c0 16 10.9 25.7 24.9 25.7 9.7 0 16.5-4.3 22.7-13.9l1.3-.3 9.2 6.2c-7.5 12.7-19.2 19.5-33.7 19.5-22.5 0-37.9-16.4-37.9-40.1 0-24.4 15.4-40.4 37.1-40.4 21.4 0 35.6 14.5 35.6 39.7 0 1 0 1.5-.2 2.8h-59zm.5-10.4H546c-.8-13-9.4-20.9-22-20.9-12.2.1-21.1 7.8-23.1 20.9zm68-29h14l22.4 51.3h.3l22.2-51.3h13.7l-35.4 76.8h-1.7l-35.5-76.8zm95 39.4v.7c0 16 10.9 25.7 24.9 25.7 9.7 0 16.5-4.3 22.7-13.9l1.3-.3 9.2 6.2c-7.5 12.7-19.2 19.5-33.7 19.5-22.5 0-37.9-16.4-37.9-40.1 0-24.4 15.4-40.4 37.1-40.4 21.4 0 35.6 14.5 35.6 39.7 0 1 0 1.5-.2 2.8h-59zm.5-10.4h45.1c-.8-13-9.4-20.9-22-20.9-12.2.1-21.1 7.8-23.1 20.9zm80.2-77.3h12.7v122.4h-12.7V51.3zm33.5 85.4c0-22.7 17.4-40.2 40.6-40.2 23.2 0 40.6 17.5 40.6 40.2 0 22.5-17.5 40.2-40.6 40.2-23 0-40.6-17.7-40.6-40.2zm67.8 0c0-15.9-11.7-28.4-27.2-28.4s-27.2 12.5-27.2 28.4c0 15.9 11.9 28.4 27.2 28.4 15.4 0 27.2-12.6 27.2-28.4zm34.3-37.1h12.7v13.2c6.5-10.5 16.5-16.4 28.2-16.4 20.5 0 34.7 15.9 34.7 39.7 0 23.5-15 40.7-35.7 40.7-10.7 0-21.5-5.8-27.2-15.4V210h-12.7V99.6zm62.1 36.6c0-17.5-8.8-27.9-23.9-27.9-15.2 0-26 12-26 28.6 0 16.9 10.2 28.2 25.5 28.2 15.2 0 24.4-11.1 24.4-28.9zm41.9 2.8v.7c0 16 10.9 25.7 24.9 25.7 9.7 0 16.5-4.3 22.7-13.9l1.3-.3 9.2 6.2c-7.5 12.7-19.2 19.5-33.7 19.5-22.5 0-37.9-16.4-37.9-40.1 0-24.4 15.4-40.4 37.1-40.4 21.4 0 35.6 14.5 35.6 39.7 0 1 0 1.5-.2 2.8h-59zm.5-10.4h45.1c-.8-13-9.4-20.9-22-20.9-12.3.1-21.1 7.8-23.1 20.9zm80.1-29h11.4v15c6.3-12.9 14-18.2 24.2-18.2 6.8 0 12.5 4 15.4 11.9l-10.9 6.3-1.3-.3c-2-4.5-4.5-6-8.5-6-8.7 0-17.5 11.4-17.5 30.7v34.7h-12.7V99.6zm57.3 61.1l10-6.8.8.2c4.2 7.5 10.7 11.9 19.2 11.9 9 0 14.7-4.2 14.7-10.4 0-5-2.5-8.8-17-14-20-7.2-24.9-14.2-24.9-24.2 0-11.2 9.7-20.9 26.2-20.9 12.9 0 22.5 6.2 26.5 15.7l-8.7 6-1.3-.2c-3-6.7-8.8-10.5-17-10.5s-12.9 4.2-12.9 9.4c0 4.7 2 8 17.2 13.7 19 7.2 24.7 13.5 24.7 24.7 0 12.2-11 21.7-27.9 21.7-13.2-.1-23.7-5.8-29.6-16.3z"/></svg>