<?xml version="1.0" encoding="utf-8"?>
<!-- Generator: Adobe Illustrator 22.0.1, SVG Export Plug-In . SVG Version: 6.00 Build 0)  -->
<svg version="1.1" id="Layer_1" xmlns="http://www.w3.org/2000/svg" xmlns:xlink="http://www.w3.org/1999/xlink" x="0px" y="0px"
	 viewBox="0 0 1223 235" style="enable-background:new 0 0 1223 235;" xml:space="preserve">
<style type="text/css">
	.st0{fill:#FFFFFF;}
</style>
<title>docusaurus</title>
<desc>Created with Sketch.</desc>
<g id="logo_3_">
	<g>
		<path id="icon_7_" class="st0" d="M76.1,74.3l14.2-22.1c5.7,1.2,11.7-1.1,15-6.3c4.3-6.6,2.3-15.5-4.3-19.8
			c-6.6-4.3-15.5-2.3-19.8,4.3c-3.3,5.2-2.9,11.6,0.6,16.3L64.2,74.2C35.8,77,13.6,100.9,13.6,130c0,31,25.1,56.1,56.1,56.1
			s56.1-25.1,56.1-56.1C125.8,101.2,104.1,77.5,76.1,74.3z M69.6,159.8c-16.4,0-29.8-13.3-29.8-29.8c0-16.4,13.3-29.8,29.8-29.8
			c12.7,0,23.6,8,27.8,19.2c-3.1-4-8-6.7-13.6-6.7c-9.5,0-17.2,7.7-17.2,17.2s7.7,17.2,17.2,17.2c5.5,0,10.4-2.6,13.5-6.6
			C93.2,151.8,82.4,159.8,69.6,159.8z"/>
		<path id="s_8_" class="st0" d="M139.4,161.8l17.9-12l1.6,0.2c5.5,9,13.6,14.3,23,14.3c9.2,0,14.9-4.1,14.9-10.3
			c0-5.1-3.7-9.4-20.7-15.4c-25.1-9.2-32.4-19.1-32.4-33.8c0-17.7,15.4-31,40.2-31c19.3,0,34.7,9,40.9,22.8l-17,11l-2.1-0.2
			c-3.7-7.6-10.8-12.2-19.8-12.2c-8.3,0-12.9,4.1-12.9,9.2c0,5.1,2.3,8.3,20.9,15.4c23.9,9.4,32,18.6,32,34.3
			c0,18.4-16.6,31.7-42.5,31.7C163.4,185.7,148,177.5,139.4,161.8z"/>
		<path id="t_8_" class="st0" d="M315.1,181.8c-5.7,2.3-14.3,3.9-22.5,3.9c-23.7,0-36.6-12-36.6-34.9v-49h-18.6V78.2h18.8V50.8
			l23.9-14h6.4v41.4h28.3v23.7h-28.3V143c0,12.6,3.9,16.6,14.5,16.6c3.7,0,7.1-0.9,11.3-2.8l2.1,1.1L315.1,181.8z"/>
	</g>
	<g>
		<path id="icon_6_" class="st0" d="M76.1,74.3l14.2-22.1c5.7,1.2,11.7-1.1,15-6.3c4.3-6.6,2.3-15.5-4.3-19.8
			c-6.6-4.3-15.5-2.3-19.8,4.3c-3.3,5.2-2.9,11.6,0.6,16.3L64.2,74.2C35.8,77,13.6,100.9,13.6,130c0,31,25.1,56.1,56.1,56.1
			s56.1-25.1,56.1-56.1C125.8,101.2,104.1,77.5,76.1,74.3z M69.6,159.8c-16.4,0-29.8-13.3-29.8-29.8c0-16.4,13.3-29.8,29.8-29.8
			c12.7,0,23.6,8,27.8,19.2c-3.1-4-8-6.7-13.6-6.7c-9.5,0-17.2,7.7-17.2,17.2s7.7,17.2,17.2,17.2c5.5,0,10.4-2.6,13.5-6.6
			C93.2,151.8,82.4,159.8,69.6,159.8z"/>
		<path id="s_7_" class="st0" d="M139.4,161.8l17.9-12l1.6,0.2c5.5,9,13.6,14.3,23,14.3c9.2,0,14.9-4.1,14.9-10.3
			c0-5.1-3.7-9.4-20.7-15.4c-25.1-9.2-32.4-19.1-32.4-33.8c0-17.7,15.4-31,40.2-31c19.3,0,34.7,9,40.9,22.8l-17,11l-2.1-0.2
			c-3.7-7.6-10.8-12.2-19.8-12.2c-8.3,0-12.9,4.1-12.9,9.2c0,5.1,2.3,8.3,20.9,15.4c23.9,9.4,32,18.6,32,34.3
			c0,18.4-16.6,31.7-42.5,31.7C163.4,185.7,148,177.5,139.4,161.8z"/>
		<path id="t_7_" class="st0" d="M315.1,181.8c-5.7,2.3-14.3,3.9-22.5,3.9c-23.7,0-36.6-12-36.6-34.9v-49h-18.6V78.2h18.8V50.8
			l23.9-14h6.4v41.4h28.3v23.7h-28.3V143c0,12.6,3.9,16.6,14.5,16.6c3.7,0,7.1-0.9,11.3-2.8l2.1,1.1L315.1,181.8z"/>
	</g>
</g>
<path class="st0" d="M370.7,55.5h31.9c44.6,0,67.8,20.5,67.8,58.4c0,38.1-24.9,59.8-67.8,59.8h-31.9V55.5z M400.4,160.9
	c37.6,0,55.4-14.9,55.4-47.3c0-31.1-17-45.3-55.4-45.3h-15.9v92.5H400.4z"/>
<path class="st0" d="M500.4,139v0.7c0,16,10.9,25.7,24.9,25.7c9.7,0,16.5-4.3,22.7-13.9l1.3-0.3l9.2,6.2
	c-7.5,12.7-19.2,19.5-33.7,19.5c-22.5,0-37.9-16.4-37.9-40.1c0-24.4,15.4-40.4,37.1-40.4c21.4,0,35.6,14.5,35.6,39.7
	c0,1,0,1.5-0.2,2.8H500.4z M500.9,128.6H546c-0.8-13-9.4-20.9-22-20.9C511.8,107.8,502.9,115.5,500.9,128.6z"/>
<path class="st0" d="M568.9,99.6h14l22.4,51.3h0.3l22.2-51.3h13.7l-35.4,76.8h-1.7L568.9,99.6z"/>
<path class="st0" d="M663.9,139v0.7c0,16,10.9,25.7,24.9,25.7c9.7,0,16.5-4.3,22.7-13.9l1.3-0.3l9.2,6.2
	c-7.5,12.7-19.2,19.5-33.7,19.5c-22.5,0-37.9-16.4-37.9-40.1c0-24.4,15.4-40.4,37.1-40.4c21.4,0,35.6,14.5,35.6,39.7
	c0,1,0,1.5-0.2,2.8H663.9z M664.4,128.6h45.1c-0.8-13-9.4-20.9-22-20.9C675.3,107.8,666.4,115.5,664.4,128.6z"/>
<path class="st0" d="M744.6,51.3h12.7v122.4h-12.7V51.3z"/>
<path class="st0" d="M778.1,136.7c0-22.7,17.4-40.2,40.6-40.2c23.2,0,40.6,17.5,40.6,40.2c0,22.5-17.5,40.2-40.6,40.2
	C795.7,176.9,778.1,159.2,778.1,136.7z M845.9,136.7c0-15.9-11.7-28.4-27.2-28.4c-15.5,0-27.2,12.5-27.2,28.4
	c0,15.9,11.9,28.4,27.2,28.4C834.1,165.1,845.9,152.5,845.9,136.7z"/>
<path class="st0" d="M880.2,99.6h12.7v13.2c6.5-10.5,16.5-16.4,28.2-16.4c20.5,0,34.7,15.9,34.7,39.7c0,23.5-15,40.7-35.7,40.7
	c-10.7,0-21.5-5.8-27.2-15.4v24.2v24.4h-12.7V99.6z M942.3,136.2c0-17.5-8.8-27.9-23.9-27.9c-15.2,0-26,12-26,28.6
	c0,16.9,10.2,28.2,25.5,28.2C933.1,165.1,942.3,154,942.3,136.2z"/>
<path class="st0" d="M984.2,139v0.7c0,16,10.9,25.7,24.9,25.7c9.7,0,16.5-4.3,22.7-13.9l1.3-0.3l9.2,6.2
	c-7.5,12.7-19.2,19.5-33.7,19.5c-22.5,0-37.9-16.4-37.9-40.1c0-24.4,15.4-40.4,37.1-40.4c21.4,0,35.6,14.5,35.6,39.7
	c0,1,0,1.5-0.2,2.8H984.2z M984.7,128.6h45.1c-0.8-13-9.4-20.9-22-20.9C995.5,107.8,986.7,115.5,984.7,128.6z"/>
<path class="st0" d="M1064.8,99.6h11.4v15c6.3-12.9,14-18.2,24.2-18.2c6.8,0,12.5,4,15.4,11.9l-10.9,6.3l-1.3-0.3
	c-2-4.5-4.5-6-8.5-6c-8.7,0-17.5,11.4-17.5,30.7v34.7h-12.7V99.6z"/>
<path class="st0" d="M1122.1,160.7l10-6.8l0.8,0.2c4.2,7.5,10.7,11.9,19.2,11.9c9,0,14.7-4.2,14.7-10.4c0-5-2.5-8.8-17-14
	c-20-7.2-24.9-14.2-24.9-24.2c0-11.2,9.7-20.9,26.2-20.9c12.9,0,22.5,6.2,26.5,15.7l-8.7,6l-1.3-0.2c-3-6.7-8.8-10.5-17-10.5
	s-12.9,4.2-12.9,9.4c0,4.7,2,8,17.2,13.7c19,7.2,24.7,13.5,24.7,24.7c0,12.2-11,21.7-27.9,21.7
	C1138.5,176.9,1128,171.2,1122.1,160.7z"/>
</svg>
